An assassin hides out in Italy for one last assignment.
 
http://www.imdb.com/title/tt1440728/

Subs: Dutch, English.

Jack (George Clooney) is een huurmoordenaar die, nadat een klus in Zweden uit de hand is gelopen, aan zijn werkgever Larry zweert dat zijn volgende klus tevens zijn laatste zal zijn. Voor deze laatste klus, waar zijn opdracht gespecificeerd wordt door de Belgische Mathilde (Thekla Reuten), duikt hij onder op het Italiaanse platteland, in een idyllisch klein stadje. Ondanks het feit dat Jack normaliter een afkeer heeft van menselijk contact, maakt hij kennis met een lokale priester en laat hij zich meeslepen in een romance met de mooie Clara. Zet Jack zo zijn laatste klus en nog belangrijker, zijn eigen veiligheid op het spel?
 
http://www.moviemeter.nl/film/61477

Ondertitels: Engels, Nederlands.

General
Complete name                    : The American-AC3-Eng.Ned Subs-BRRip 2010\The American-AC3-Eng.Ned Subs-BRRip 2010.avi
Format                           : AVI
Format/Info                      : Audio Video Interleave
File size                        : 1.46 GiB
Duration                         : 1h 40mn
Overall bit rate                 : 2 078 Kbps
Writing application              : VirtualDubMod 1.5.4.1 (build 2178/release)
Writing library                  : VirtualDubMod build 2178/release
Source                           : The.American.2010.720p.BluRay.DTS.x264-DNL

Video
ID                               : 0
Format                           : MPEG-4 Visual
Format profile                   : Simple@L3
Format settings, BVOP            : No
Format settings, QPel            : No
Format settings, GMC             : No warppoints
Format settings, Matrix          : Default (H.263)
Codec ID                         : XVID
Codec ID/Hint                    : XviD
Duration                         : 1h 40mn
Bit rate                         : 1 620 Kbps
Width                            : 720 pixels
Height                           : 304 pixels
Display aspect ratio             : 2.35:1
Frame rate                       : 25.000 fps
Resolution                       : 8 bits
Colorimetry                      : 4:2:0
Scan type                        : Progressive
Bits/(Pixel*Frame)               : 0.296
Stream size                      : 1.14 GiB (78%)
Writing library                  : XviD 1.1.2 (UTC 2006-11-01)

Audio
ID                               : 1
Format                           : AC-3
Format/Info                      : Audio Coding 3
Codec ID                         : 2000
Duration                         : 1h 40mn
Bit rate mode                    : Constant
Bit rate                         : 448 Kbps
Channel(s)                       : 6 channels
Channel positions                : Front: L C R, Surround: L R, LFE
Sampling rate                    : 48.0 KHz
Stream size                      : 322 MiB (22%)
Alignment                        : Split accross interleaves
Interleave, duration             : 40 ms (1.00 video frame)
Interleave, preload duration     : 500 ms

Thanks to Simply ReleaseS Toppers for the Dutch subs.

Blackbeard  TBS.